# Blender v3.4.1 OBJ File: 'mario_destroy_2.blend'
# www.blender.org
mtllib low_cell_102.mtl
o low_cell.102_low_cell.103
v -2.518229 1.439716 -2.326349
v -2.493232 1.448960 -2.312886
v -2.485173 1.491085 -2.336732
v -2.511693 1.527432 -2.384372
v -2.492573 1.431160 -2.334907
v -2.492125 1.421148 -2.328220
v -2.491405 1.457442 -2.351894
v -2.491490 1.451018 -2.347850
v -2.490874 1.461497 -2.347724
v -2.491661 1.469818 -2.359447
v -2.494491 1.482301 -2.365666
v -2.487751 1.481494 -2.347676
v -2.495178 1.487939 -2.368795
v -2.498528 1.497760 -2.373079
v -2.493912 1.501747 -2.368674
v -2.482803 1.501490 -2.347808
v -2.486670 1.520709 -2.366887
v -2.502501 1.507269 -2.376831
v -2.509620 1.522149 -2.382214
v -2.501688 1.501853 -2.373908
v -2.499008 1.522045 -2.377378
v -2.497309 1.535602 -2.378654
v -2.505965 1.531559 -2.382725
v -2.485922 1.538775 -2.371751
v -2.476043 1.537397 -2.362781
v -2.475689 1.530461 -2.357489
v -2.477824 1.526501 -2.360760
v -2.479690 1.522479 -2.354959
v -2.478991 1.513502 -2.347917
v -2.482718 1.501391 -2.342186
v -2.488028 1.478689 -2.330104
v -2.489041 1.474052 -2.327580
v -2.490955 1.465569 -2.323012
v -2.491626 1.461141 -2.327555
v -2.493570 1.441145 -2.327720
v -2.491966 1.460439 -2.320133
v -2.492552 1.441383 -2.341280
v -2.493698 1.441401 -2.317296
v -2.491405 1.457442 -2.351894
v -2.491490 1.451018 -2.347850
v -2.491661 1.469818 -2.359447
v -2.494491 1.482301 -2.365666
v -2.495178 1.487939 -2.368795
v -2.498528 1.497760 -2.373079
v -2.509620 1.522149 -2.382214
v -2.502501 1.507269 -2.376831
v -2.501688 1.501853 -2.373908
v -2.497309 1.535602 -2.378654
v -2.505965 1.531559 -2.382725
v -2.485922 1.538775 -2.371751
v -2.476043 1.537397 -2.362781
v -2.475689 1.530461 -2.357489
v -2.479690 1.522479 -2.354959
v -2.478991 1.513502 -2.347917
v -2.482718 1.501391 -2.342186
v -2.485173 1.491085 -2.336732
v -2.511693 1.527432 -2.384372
v -2.488028 1.478689 -2.330104
v -2.489041 1.474052 -2.327580
v -2.490955 1.465569 -2.323012
v -2.491966 1.460439 -2.320133
v -2.493232 1.448960 -2.312886
v -2.493698 1.441401 -2.317296
v -2.492125 1.421148 -2.328220
v -2.492552 1.441383 -2.341280
v -2.492573 1.431160 -2.334907
vt 0.000000 0.000000
vt 0.334543 0.000974
vt 0.125221 0.037919
vt 0.053195 0.053195
vt 0.945742 0.010835
vt 0.929635 0.000000
vt 1.000000 0.000000
vt 0.995094 0.048763
vt 0.980206 0.036101
vt 0.971659 0.029707
vt 0.957681 0.019806
vt 0.975275 0.081299
vt 0.960023 0.084568
vt 0.952666 0.086135
vt 0.938282 0.084039
vt 0.900255 0.055329
vt 0.878235 0.033163
vt 0.860158 0.013049
vt 0.850984 0.000000
vt 0.999074 0.070700
vt 0.987531 0.074428
vt 1.000000 0.944067
vt 1.000000 1.000000
vt 0.850984 0.850984
vt 0.863618 0.858026
vt 0.901094 0.876854
vt 0.912100 0.885100
vt 0.924192 0.889336
vt 0.946928 0.902820
vt 0.958148 0.911530
vt 0.984928 0.929789
vt 1.000000 0.945447
vt 0.950764 0.942916
vt 0.962675 0.943109
vt 0.981116 0.945385
vt 1.000000 0.659463
vt 0.945447 0.945447
vt 0.000000 0.000000
vt 0.000000 0.000000
vt 0.000000 0.000000
vt 0.000000 0.000000
vt 0.000000 0.000000
vt 0.000000 0.000000
vt 0.000000 0.000000
vt 0.000000 0.000000
vt 0.000000 0.000000
vt 0.000000 0.000000
vt 0.000000 0.000000
vt 0.000000 0.000000
vt 0.000000 0.000000
vt 0.000000 0.000000
vt 0.000000 0.000000
vt 0.000000 0.000000
vt 0.000000 0.000000
vt 0.000000 0.000000
vt 0.000000 0.000000
vt 0.000000 0.000000
vt 0.000000 0.000000
vt 0.000000 0.000000
vt 0.000000 0.000000
vt 0.000000 0.000000
vt 0.000000 0.000000
vt 0.000000 0.000000
vt 0.000000 0.000000
vt 0.000000 0.000000
vt 0.000000 0.000000
vt 0.000000 0.000000
vt 0.000000 0.000000
vt 0.000000 0.000000
vt 0.000000 0.000000
vt 0.000000 0.000000
vt 0.000000 0.000000
vt 0.000000 0.000000
vt 0.000000 0.000000
vn -0.2764 -0.4724 0.8369
vn -0.5469 0.4892 0.6794
vn -0.5477 0.4896 0.6784
vn -0.4182 -0.4793 -0.7716
vn -0.4174 -0.4801 -0.7715
vn -0.4210 -0.5167 -0.7455
vn 0.9958 -0.0577 -0.0707
vn 0.9699 -0.0552 -0.2371
vn 0.8977 -0.1547 -0.4126
vn 0.7156 -0.0595 -0.6959
vn 0.8477 -0.2780 -0.4519
vn 0.6238 -0.1705 -0.7628
vn 0.5550 -0.0941 -0.8265
vn 0.4102 -0.1304 -0.9027
vn 0.5895 -0.1977 -0.7832
vn 0.4364 -0.1768 -0.8822
vn 0.6431 -0.2298 -0.7305
vn 0.9219 -0.3309 -0.2013
vn 0.7935 -0.4623 -0.3958
vn 0.9529 -0.3026 -0.0197
vn 0.9710 -0.2385 -0.0199
vn 0.9842 -0.1763 0.0131
vn 0.9811 -0.1892 0.0395
vn 0.9954 -0.0798 0.0529
vn 0.9955 -0.0904 0.0275
vn 0.9967 0.0581 0.0575
vn 0.9974 0.0718 0.0105
usemtl bake
s off
f 1/1/1 64/2/1 38/3/1 62/4/1
f 31/5/2 56/6/2 1/7/2 62/8/2 36/9/2 60/10/2 59/11/2
f 54/12/3 28/13/3 52/14/3 51/15/3 50/16/3 22/17/3 49/18/3 57/19/3 1/7/3 56/20/3 55/21/3
f 39/22/4 1/23/4 57/24/4 45/25/4 18/26/4 47/27/4 44/28/4 43/29/4 42/30/4 41/31/4
f 66/32/5 1/23/5 39/33/5 40/34/5 37/35/5
f 64/36/6 1/23/6 66/37/6
f 9/38/7 8/39/7 7/40/7
f 12/41/8 9/38/8 7/40/8 10/42/8 11/43/8
f 13/44/9 15/45/9 16/46/9 12/41/9 11/43/9
f 15/45/10 13/44/10 14/47/10
f 15/45/11 17/48/11 29/49/11 16/46/11
f 46/50/12 21/51/12 17/48/12 15/45/12
f 20/52/13 46/50/13 15/45/13 14/47/13
f 19/53/14 21/51/14 46/50/14
f 17/48/15 21/51/15 48/54/15 24/55/15
f 19/53/16 4/56/16 23/57/16 48/54/16 21/51/16
f 27/58/17 17/48/17 24/55/17 25/59/17
f 26/60/18 53/61/18 27/58/18 25/59/18
f 29/49/19 17/48/19 27/58/19 53/61/19
f 30/62/20 16/46/20 29/49/20
f 12/41/21 16/46/21 30/62/21 3/63/21 58/64/21
f 32/65/22 34/66/22 9/38/22 12/41/22 58/64/22
f 33/67/23 61/68/23 34/66/23 32/65/23
f 8/39/24 9/38/24 34/66/24 35/69/24 65/70/24
f 2/71/25 63/72/25 35/69/25 34/66/25 61/68/25
f 35/69/26 6/73/26 5/74/26 65/70/26
f 6/73/27 35/69/27 63/72/27
