# Blender v3.4.1 OBJ File: 'mario_destroy_2.blend'
# www.blender.org
mtllib low_cell_101.mtl
o low_cell.101_low_cell.102
v -3.606786 1.413752 -5.193849
v -3.607411 1.433757 -5.193923
v -3.613142 1.414093 -5.212513
v -3.602510 1.413574 -5.184224
v -3.606271 1.396814 -5.195986
v -3.602218 1.404295 -5.185396
v -3.607454 1.393871 -5.200696
v -3.611097 1.394096 -5.213073
v -3.609978 1.386676 -5.212697
v -3.610158 1.382395 -5.221583
v -3.610153 1.376554 -5.234038
v -3.612955 1.394451 -5.232984
v -3.609634 1.380823 -5.245381
v -3.608654 1.373190 -5.243188
v -3.604921 1.371734 -5.251221
v -3.594549 1.370028 -5.268558
v -3.607495 1.394895 -5.258642
v -3.595459 1.375056 -5.269085
v -3.598663 1.395097 -5.270949
v -3.581239 1.372443 -5.280992
v -3.573097 1.374309 -5.287771
v -3.586348 1.395275 -5.282214
v -3.574066 1.380627 -5.288025
v -3.567563 1.376402 -5.290621
v -3.576993 1.395383 -5.289239
v -3.563742 1.395495 -5.296906
v -3.583633 1.416662 -5.290092
v -3.590004 1.410723 -5.283632
v -3.583587 1.435491 -5.294348
v -3.564224 1.415586 -5.301784
v -3.593169 1.424089 -5.285028
v -3.595052 1.435368 -5.286232
v -3.601363 1.416779 -5.273391
v -3.611030 1.422835 -5.263318
v -3.609526 1.409463 -5.261431
v -3.603957 1.435179 -5.274663
v -3.611614 1.435001 -5.263859
v -3.606572 1.455199 -5.275350
v -3.607983 1.472570 -5.276303
v -3.597802 1.455412 -5.288285
v -3.612469 1.455021 -5.264719
v -3.616621 1.454797 -5.251645
v -3.613532 1.475046 -5.265875
v -3.618459 1.474794 -5.251106
v -3.620264 1.474438 -5.230833
v -3.618865 1.454442 -5.231328
v -3.618774 1.474216 -5.222048
v -3.570778 1.450992 -5.303559
v -3.616792 1.471823 -5.211122
v -3.608373 1.464473 -5.192783
v -3.615779 1.454086 -5.211539
v -3.608044 1.453748 -5.193168
v -3.614550 1.434089 -5.212018
v -3.617581 1.434445 -5.231812
v -3.615136 1.434800 -5.252148
v -3.615719 1.414448 -5.232353
v -3.612813 1.415528 -5.253667
v -3.611196 1.394718 -5.248229
v -3.602177 1.453570 -5.183701
v -3.602184 1.459492 -5.183506
v -3.602140 1.433579 -5.184397
v -3.591434 1.451781 -5.176762
v -3.591325 1.433424 -5.176647
v -3.571239 1.437834 -5.169460
v -3.565783 1.434280 -5.169618
v -3.571220 1.431076 -5.169264
v -3.593613 1.413436 -5.177281
v -3.599143 1.407753 -5.182087
v -3.508727 1.409757 -5.297250
v -3.516837 1.415499 -5.301589
v -3.515342 1.404913 -5.298836
v -3.526065 1.397713 -5.300017
v -3.531310 1.394428 -5.300090
v -3.524299 1.415564 -5.304511
v -3.544631 1.415642 -5.306880
v -3.524370 1.420794 -5.305229
v -3.543096 1.433433 -5.309076
v -3.547602 1.436363 -5.308894
v -3.562971 1.434229 -5.305095
v -3.555545 1.439999 -5.308400
v -3.560849 1.444805 -5.306641
v -3.566565 1.448394 -5.305135
v -3.544180 1.395557 -5.302323
v -3.543963 1.386567 -5.300131
v -3.551497 1.383262 -5.297223
v -3.538749 1.389699 -5.300343
v -3.605544 1.462226 -5.188835
v -3.578260 1.455598 -5.300757
v -3.583968 1.455563 -5.298209
v -3.589101 1.462146 -5.295428
v -3.601618 1.469324 -5.285438
v -3.606271 1.396814 -5.195986
v -3.602218 1.404295 -5.185396
v -3.607454 1.393871 -5.200696
v -3.609978 1.386676 -5.212697
v -3.610158 1.382395 -5.221583
v -3.610153 1.376554 -5.234038
v -3.608654 1.373190 -5.243188
v -3.604921 1.371734 -5.251221
v -3.594549 1.370028 -5.268558
v -3.581239 1.372443 -5.280992
v -3.573097 1.374309 -5.287771
v -3.618459 1.474794 -5.251106
v -3.613532 1.475046 -5.265875
v -3.607983 1.472570 -5.276303
v -3.620264 1.474438 -5.230833
v -3.618774 1.474216 -5.222048
v -3.616792 1.471823 -5.211122
v -3.608373 1.464473 -5.192783
v -3.591434 1.451781 -5.176762
v -3.571239 1.437834 -5.169460
v -3.602184 1.459492 -5.183506
v -3.565783 1.434280 -5.169618
v -3.593613 1.413436 -5.177281
v -3.571220 1.431076 -5.169264
v -3.599143 1.407753 -5.182087
v -3.508727 1.409757 -5.297250
v -3.516837 1.415499 -5.301589
v -3.515342 1.404913 -5.298836
v -3.526065 1.397713 -5.300017
v -3.531310 1.394428 -5.300090
v -3.543096 1.433433 -5.309076
v -3.524370 1.420794 -5.305229
v -3.547602 1.436363 -5.308894
v -3.555545 1.439999 -5.308400
v -3.560849 1.444805 -5.306641
v -3.566565 1.448394 -5.305135
v -3.570778 1.450992 -5.303559
v -3.551497 1.383262 -5.297223
v -3.543963 1.386567 -5.300131
v -3.538749 1.389699 -5.300343
v -3.567563 1.376402 -5.290621
v -3.605544 1.462226 -5.188835
v -3.578260 1.455598 -5.300757
v -3.583968 1.455563 -5.298209
v -3.589101 1.462146 -5.295428
v -3.601618 1.469324 -5.285438
vt 0.000000 0.000000
vt 0.000000 0.000000
vt 0.000000 0.000000
vt 0.000000 0.000000
vt 0.000000 0.000000
vt 0.000000 0.000000
vt 0.000000 0.000000
vt 0.000000 0.000000
vt 0.000000 0.000000
vt 0.000000 0.000000
vt 0.600004 0.582971
vt 0.586038 0.586038
vt 0.472112 0.472112
vt 0.480842 0.468566
vt 0.532515 0.459826
vt 0.549964 0.459417
vt 0.560722 0.459584
vt 0.585233 0.463660
vt 0.595074 0.465852
vt 0.619304 0.471736
vt 0.634354 0.477128
vt 0.658563 0.486677
vt 0.667612 0.491423
vt 0.676678 0.501130
vt 0.685451 0.518022
vt 0.682801 0.534099
vt 0.680626 0.540780
vt 0.673820 0.548870
vt 0.659289 0.559849
vt 0.651201 0.566260
vt 0.642616 0.569582
vt 0.629448 0.573977
vt 0.614497 0.579409
vt 0.000000 0.000000
vt 0.000000 0.000000
vt 0.000000 0.000000
vt 0.000000 0.000000
vt 0.000000 0.000000
vt 0.000000 0.000000
vt 0.000000 0.000000
vt 0.000000 0.000000
vt 0.000000 0.000000
vt 0.000000 0.000000
vt 0.000000 0.000000
vt 0.000000 0.000000
vt 0.000000 0.000000
vt 0.000000 0.000000
vt 0.000000 0.000000
vt 0.000000 0.000000
vt 0.000000 0.000000
vt 0.000000 0.000000
vt 0.000000 0.000000
vt 0.000000 0.000000
vt 0.000000 0.000000
vt 0.000000 0.000000
vt 0.000000 0.000000
vt 0.000000 0.000000
vt 0.000000 0.000000
vt 0.000000 0.000000
vt 0.000000 0.000000
vt 0.000000 0.000000
vt 0.000000 0.000000
vt 0.000000 0.000000
vt 0.000000 0.000000
vt 0.000000 0.000000
vt 0.000000 0.000000
vt 0.000000 0.000000
vt 0.000000 0.000000
vt 0.000000 0.000000
vt 0.000000 0.000000
vt 0.000000 0.000000
vt 0.000000 0.000000
vt 0.000000 0.000000
vt 0.000000 0.000000
vt 0.547635 0.000000
vt 0.616048 0.000000
vt 0.609208 0.061283
vt 0.604137 0.109122
vt 0.598807 0.142217
vt 0.585317 0.211919
vt 0.576891 0.222285
vt 0.568591 0.216210
vt 0.558890 0.178581
vt 0.549774 0.070982
vt 0.000000 0.000000
vt 0.000000 0.000000
vt 0.000000 0.000000
vt 0.000000 0.000000
vt 0.000000 0.000000
vt 0.765292 0.611496
vt 0.739103 0.612997
vt 0.691408 0.615567
vt 0.666657 0.615586
vt 0.636810 0.616137
vt 0.616048 0.616048
vt 0.547635 0.547635
vt 0.588275 0.535302
vt 0.686629 0.512687
vt 0.713818 0.507437
vt 0.747806 0.500521
vt 0.829280 0.489328
vt 0.968127 0.473994
vt 1.000000 0.472112
vt 1.000000 0.586037
vt 0.940519 0.593687
vt 0.886304 0.600379
vt 0.000000 0.000000
vt 0.000000 0.000000
vt 0.000000 0.000000
vt 0.000000 0.000000
vt 0.000000 0.000000
vt 0.000000 0.000000
vt 0.000000 0.000000
vt 0.000000 0.000000
vt 0.000000 0.000000
vt 0.000000 0.000000
vt 0.000000 0.000000
vt 0.000000 0.000000
vt 0.000000 0.000000
vt 0.000000 0.000000
vt 0.000000 0.000000
vt 0.000000 0.000000
vt 0.000000 0.000000
vt 0.000000 0.000000
vt 0.000000 0.000000
vt 0.000000 0.000000
vt 0.000000 0.000000
vt 0.000000 0.000000
vt 0.000000 0.000000
vt 0.000000 0.000000
vt 0.000000 0.000000
vt 0.000000 0.000000
vt 0.000000 0.000000
vt 0.000000 0.000000
vt 0.000000 0.000000
vt 0.000000 0.000000
vt 0.000000 0.000000
vt 0.000000 0.000000
vt 0.000000 0.000000
vt 0.000000 0.000000
vt 0.000000 0.000000
vn -0.8950 -0.0029 0.4461
vn -0.9378 -0.0513 0.3434
vn -0.9495 -0.0866 0.3015
vn -0.9113 -0.0790 0.4040
vn 0.4893 -0.7895 0.3704
vn -0.9519 -0.1295 0.2778
vn -0.9852 -0.1501 0.0830
vn -0.9840 -0.1412 -0.1084
vn -0.9528 -0.1903 -0.2367
vn -0.9106 -0.2016 -0.3608
vn -0.8487 -0.2050 -0.4876
vn -0.8219 -0.2226 -0.5243
vn -0.6504 -0.1949 -0.7341
vn -0.6563 -0.1800 -0.7327
vn -0.5488 -0.1175 -0.8277
vn -0.5849 -0.1764 -0.7917
vn -0.4825 -0.1773 -0.8578
vn -0.5876 -0.2130 -0.7806
vn -0.5037 -0.2030 -0.8397
vn -0.6678 -0.2320 -0.7073
vn -0.4899 -0.1562 -0.8576
vn -0.5671 -0.1803 -0.8037
vn -0.7671 -0.1674 -0.6193
vn -0.7803 -0.1176 -0.6143
vn -0.8482 -0.1663 -0.5029
vn -0.7761 -0.1881 -0.6018
vn -0.6856 -0.1904 -0.7027
vn -0.8408 -0.0935 -0.5332
vn -0.8011 -0.1470 -0.5802
vn -0.8268 -0.1047 -0.5526
vn -0.8793 -0.0846 -0.4687
vn -0.9533 -0.0584 -0.2962
vn -0.9478 -0.0735 -0.3103
vn 0.5086 0.8585 0.0658
vn -0.9919 -0.0777 -0.1003
vn -0.9851 -0.0666 0.1587
vn 0.5455 0.8340 0.0827
vn -0.9181 -0.0544 0.3926
vn -0.9249 -0.0547 0.3763
vn -0.9863 -0.0656 0.1512
vn -0.9868 -0.0843 0.1381
vn -0.9911 -0.0658 -0.1155
vn -0.9866 -0.0983 -0.1301
vn -0.9867 -0.1218 0.1079
vn -0.9841 -0.1210 -0.1300
vn -0.9371 -0.1678 -0.3060
vn -0.9604 -0.0805 -0.2669
vn -0.8624 -0.0328 0.5051
vn -0.8430 -0.0261 0.5373
vn -0.5456 -0.0283 0.8376
vn -0.5639 -0.0147 0.8257
vn -0.3388 0.0099 0.9408
vn 0.0478 0.0290 0.9984
vn -0.3437 0.0096 0.9390
vn -0.6344 -0.0849 0.7684
vn -0.5971 0.0304 0.8016
vn 0.3147 -0.2265 -0.9218
vn 0.1310 -0.2332 -0.9636
vn 0.1137 -0.1319 -0.9847
vn 0.3610 -0.1220 -0.9245
vn -0.2229 -0.1375 -0.9651
vn -0.1914 -0.2906 -0.9375
vn -0.3324 -0.0708 -0.9405
vn -0.4419 -0.1494 -0.8845
vn -0.2519 -0.2268 -0.9408
vn -0.2663 -0.2423 -0.9329
vn 0.1312 -0.2061 -0.9697
vn -0.5716 -0.1632 -0.8041
vn -0.6106 -0.0495 -0.7904
usemtl bake
s off
f 61/1/1 2/2/1 1/3/1 4/4/1
f 53/5/2 3/6/2 1/3/2 2/2/2
f 1/3/3 3/6/3 8/7/3 94/8/3 92/9/3
f 4/4/4 1/3/4 92/9/4 93/10/4
f 119/11/5 117/12/5 113/13/5 66/14/5 114/15/5 116/16/5 6/17/5 5/18/5 7/19/5 95/20/5 96/21/5 97/22/5 98/23/5 99/24/5 100/25/5 20/26/5 102/27/5 24/28/5 129/29/5 84/30/5 131/31/5 121/32/5 120/33/5
f 9/34/6 94/8/6 8/7/6
f 10/35/7 9/34/7 8/7/7 12/36/7 11/37/7
f 12/36/8 58/38/8 13/39/8 11/37/8
f 14/40/9 11/37/9 13/39/9 15/41/9
f 58/38/10 17/42/10 15/41/10 13/39/10
f 15/41/11 18/43/11 16/44/11
f 19/45/12 18/43/12 15/41/12 17/42/12
f 18/43/13 101/46/13 16/44/13
f 19/45/14 22/47/14 101/46/14 18/43/14
f 101/46/15 23/48/15 132/49/15 21/50/15
f 25/51/16 23/48/16 101/46/16 22/47/16
f 132/49/17 23/48/17 25/51/17 26/52/17
f 27/53/18 25/51/18 22/47/18 28/54/18
f 27/53/19 30/55/19 26/52/19 25/51/19
f 31/56/20 27/53/20 28/54/20 33/57/20
f 29/58/21 79/59/21 30/55/21 27/53/21
f 32/60/22 29/58/22 27/53/22 31/56/22
f 32/60/23 31/56/23 33/57/23 36/61/23
f 37/62/24 36/61/24 33/57/24 34/63/24
f 34/63/25 33/57/25 35/64/25 57/65/25
f 33/57/26 19/45/26 17/42/26 35/64/26
f 33/57/27 28/54/27 22/47/27 19/45/27
f 41/66/28 38/67/28 36/61/28 37/62/28
f 40/68/29 32/60/29 36/61/29 38/67/29
f 40/68/30 38/67/30 105/69/30 91/70/30
f 38/67/31 41/66/31 104/71/31 105/69/31
f 41/66/32 37/62/32 55/72/32 42/73/32
f 104/71/33 41/66/33 42/73/33 103/74/33
f 107/75/34 128/76/34 134/77/34 135/78/34 136/79/34 137/80/34 39/81/34 43/82/34 44/83/34 106/84/34
f 103/74/35 42/73/35 46/85/35 45/86/35
f 45/86/36 46/85/36 51/87/36 108/88/36 47/89/36
f 122/90/37 124/91/37 125/92/37 126/93/37 127/94/37 128/95/37 107/96/37 49/97/37 109/98/37 133/99/37 60/100/37 62/101/37 111/102/37 113/103/37 117/104/37 118/105/37 76/106/37
f 51/87/38 52/107/38 50/108/38 108/88/38
f 51/87/39 53/5/39 2/2/39 52/107/39
f 46/85/40 54/109/40 53/5/40 51/87/40
f 54/109/41 56/110/41 3/6/41 53/5/41
f 42/73/42 55/72/42 54/109/42 46/85/42
f 55/72/43 57/65/43 56/110/43 54/109/43
f 56/110/44 12/36/44 8/7/44 3/6/44
f 57/65/45 58/38/45 12/36/45 56/110/45
f 57/65/46 35/64/46 17/42/46 58/38/46
f 37/62/47 34/63/47 57/65/47 55/72/47
f 59/111/48 52/107/48 2/2/48 61/1/48
f 52/107/49 59/111/49 112/112/49 87/113/49 50/108/49
f 59/111/50 110/114/50 112/112/50
f 110/114/51 59/111/51 61/1/51 63/115/51
f 63/115/52 115/116/52 64/117/52 110/114/52
f 64/117/53 115/116/53 65/118/53
f 115/116/54 63/115/54 67/119/54
f 4/4/55 93/10/55 68/120/55 67/119/55
f 67/119/56 63/115/56 61/1/56 4/4/56
f 74/121/57 70/122/57 69/123/57 71/124/57 72/125/57
f 75/126/58 74/121/58 72/125/58 73/127/58 83/128/58
f 74/121/59 75/126/59 77/129/59 123/130/59
f 74/121/60 123/130/60 70/122/60
f 77/129/61 75/126/61 30/55/61 79/59/61 78/131/61
f 78/131/62 79/59/62 80/132/62
f 80/132/63 79/59/63 82/133/63 81/134/63
f 79/59/64 29/58/64 89/135/64 88/136/64 48/137/64 82/133/64
f 30/55/65 75/126/65 83/128/65 26/52/65
f 85/138/66 132/49/66 26/52/66 83/128/66 130/139/66
f 83/128/67 73/127/67 86/140/67 130/139/67
f 40/68/68 89/135/68 29/58/68 32/60/68
f 89/135/69 40/68/69 91/70/69 90/141/69
