# Blender v3.4.1 OBJ File: 'mario_Destroy_Sliced_V03.blend'
# www.blender.org
mtllib low_004.mtl
o low.004_Fotogrametria_MarioGomes_V01_Model_2.005
v -3.476981 1.540602 -5.551605
v -3.480881 1.513746 -5.583708
v -3.479374 1.526056 -5.566658
v -3.482597 1.557326 -5.566178
v -3.487558 1.557859 -5.595829
v -3.484731 1.537599 -5.614344
v -3.485815 1.555510 -5.619614
v -3.448295 1.519502 -5.520563
v -3.451442 1.553942 -5.518852
v -3.470477 1.500381 -5.571389
v -3.473760 1.505873 -5.595881
v -3.448272 1.477356 -5.620703
v -3.455579 1.496187 -5.629999
v -3.460292 1.519444 -5.646646
v -3.460011 1.558936 -5.664484
v -3.412475 1.543611 -5.497032
v -3.425268 1.525896 -5.505353
v -3.425122 1.555551 -5.503872
v -3.429300 1.477415 -5.651652
v -3.435504 1.534419 -5.679543
v -3.478581 1.573400 -5.553463
v -3.484272 1.579838 -5.595761
v -3.484396 1.577093 -5.615283
v -3.447940 1.579193 -5.519921
v -3.460731 1.586062 -5.538246
v -3.459682 1.608340 -5.558469
v -3.474089 1.592370 -5.566394
v -3.477938 1.594836 -5.596120
v -3.462977 1.614355 -5.597251
v -3.462611 1.612555 -5.627470
v -3.465132 1.588834 -5.652927
v -3.460236 1.608087 -5.647724
v -3.430278 1.587975 -5.514724
v -3.422129 1.606161 -5.521149
v -3.442690 1.599292 -5.525839
v -3.430118 1.616684 -5.540924
v -3.417085 1.632557 -5.556645
v -3.437667 1.626694 -5.569382
v -3.440002 1.632939 -5.599959
v -3.444929 1.627553 -5.628951
v -3.426817 1.635140 -5.643294
v -3.452809 1.589100 -5.669216
v -3.439604 1.617489 -5.657434
v -3.440379 1.559304 -5.682222
v -3.438866 1.589278 -5.680640
v -3.433181 1.607100 -5.677809
v -3.381619 1.477694 -5.501651
v -3.396945 1.559970 -5.501673
v -3.414156 1.498524 -5.676840
v -3.366484 1.477364 -5.503400
v -3.380615 1.539301 -5.500525
v -3.356426 1.496020 -5.505318
v -3.371125 1.542529 -5.504688
v -3.330355 1.522412 -5.530512
v -3.349105 1.570595 -5.528193
v -3.331200 1.551017 -5.540760
v -3.356679 1.499089 -5.687038
v -3.350350 1.529072 -5.678296
v -3.367312 1.576864 -5.685157
v -3.306764 1.498352 -5.556333
v -3.319082 1.526212 -5.551259
v -3.325501 1.573600 -5.563538
v -3.302709 1.514582 -5.588711
v -3.315423 1.557326 -5.582706
v -3.306765 1.530611 -5.614190
v -3.321782 1.585331 -5.611685
v -3.308365 1.512038 -5.655348
v -3.312294 1.527047 -5.644328
v -3.310879 1.477484 -5.688088
v -3.321665 1.499620 -5.675288
v -3.328576 1.528806 -5.665378
v -3.335635 1.567536 -5.658777
v -3.292017 1.497575 -5.588701
v -3.269734 1.477339 -5.617979
v -3.284619 1.495189 -5.618369
v -3.301659 1.515790 -5.630539
v -3.290914 1.497852 -5.645394
v -3.300142 1.492260 -5.668906
v -3.273890 1.483883 -5.633745
v -3.397852 1.586204 -5.510846
v -3.399052 1.606636 -5.522987
v -3.403773 1.629127 -5.553014
v -3.406892 1.643134 -5.602282
v -3.409849 1.640005 -5.632197
v -3.413002 1.622996 -5.664082
v -3.397382 1.635924 -5.649933
v -3.366595 1.596839 -5.529542
v -3.374430 1.603056 -5.530231
v -3.375391 1.634561 -5.578446
v -3.377042 1.640407 -5.605282
v -3.379621 1.635913 -5.640676
v -3.380316 1.589871 -5.685683
v -3.384248 1.618462 -5.664196
v -3.345283 1.595394 -5.550654
v -3.351463 1.606764 -5.556104
v -3.346359 1.615382 -5.582025
v -3.360587 1.634527 -5.594370
v -3.331999 1.608073 -5.611178
v -3.332481 1.592532 -5.640013
v -3.351371 1.617836 -5.636741
v -3.362516 1.634204 -5.624911
v -3.353638 1.586464 -5.667136
v -3.361318 1.610366 -5.658632
v -3.329364 1.602461 -5.592277
v -3.332290 1.605539 -5.629182
v -3.415722 1.523274 -5.686200
v -3.415956 1.559469 -5.693964
v -3.385291 1.497176 -5.685290
v -3.385527 1.529360 -5.691100
v -3.385794 1.559413 -5.693799
v -3.366159 1.529232 -5.685741
v -3.364983 1.559248 -5.686530
v -3.415469 1.589386 -5.689031
v -3.414630 1.608288 -5.680545
v -3.395853 1.606740 -5.681334
v -3.395935 1.477347 -5.678144
v -3.278497 1.477286 -5.580748
v -3.322893 1.477233 -5.692734
v -3.356360 1.477311 -5.694575
v -3.456694 1.477311 -5.570563
v -3.446234 1.477354 -5.539644
v -3.454762 1.477312 -5.599831
v -3.380537 1.477311 -5.687272
v -3.311872 1.477333 -5.536493
v -3.274956 1.477187 -5.650287
v -3.396353 1.477362 -5.504471
v -3.423224 1.477339 -5.517784
v -3.439634 1.477389 -5.531836
v -3.334708 1.477342 -5.517940
vt 0.584240 0.897540
vt 0.581852 0.896664
vt 0.582546 0.894804
vt 0.575348 0.896824
vt 0.579793 0.896323
vt 0.579174 0.900602
vt 0.242941 0.929895
vt 0.246144 0.929698
vt 0.245071 0.935481
vt 0.240643 0.928354
vt 0.241810 0.926453
vt 0.247268 0.934630
vt 0.248640 0.933964
vt 0.245139 0.925302
vt 0.243976 0.922751
vt 0.245672 0.921340
vt 0.586655 0.905225
vt 0.587494 0.902534
vt 0.589437 0.903687
vt 0.386735 0.933935
vt 0.389067 0.935520
vt 0.385797 0.937554
vt 0.386997 0.930227
vt 0.384201 0.935275
vt 0.387701 0.926738
vt 0.385564 0.924861
vt 0.570901 0.903254
vt 0.573920 0.905088
vt 0.571528 0.906062
vt 0.241660 0.936523
vt 0.239853 0.936981
vt 0.569669 0.899007
vt 0.571688 0.895768
vt 0.520163 0.770226
vt 0.518313 0.766055
vt 0.522299 0.764509
vt 0.522824 0.768657
vt 0.525031 0.766257
vt 0.524503 0.772087
vt 0.530231 0.766188
vt 0.526833 0.763122
vt 0.531005 0.764593
vt 0.532351 0.769088
vt 0.534841 0.767985
vt 0.534657 0.765432
vt 0.537489 0.766567
vt 0.202152 0.874874
vt 0.537092 0.764767
vt 0.535634 0.763678
vt 0.383393 0.926071
vt 0.381911 0.923957
vt 0.382144 0.935951
vt 0.379423 0.938925
vt 0.379009 0.932575
vt 0.379457 0.925455
vt 0.380355 0.922600
vt 0.519127 0.772714
vt 0.522354 0.773106
vt 0.377246 0.930702
vt 0.375622 0.932537
vt 0.687963 0.985847
vt 0.686111 0.984056
vt 0.687963 0.982590
vt 0.526732 0.776364
vt 0.072026 0.934918
vt 0.071779 0.932595
vt 0.074789 0.935687
vt 0.071798 0.929858
vt 0.076291 0.929750
vt 0.074700 0.931421
vt 0.075568 0.927567
vt 0.072745 0.924581
vt 0.074743 0.924018
vt 0.068181 0.919128
vt 0.072683 0.920689
vt 0.068422 0.921996
vt 0.078624 0.930871
vt 0.575563 0.894567
vt 0.072155 0.918049
vt 0.074812 0.917475
vt 0.076417 0.917678
vt 0.075948 0.919707
vt 0.525312 0.760169
vt 0.531227 0.762166
vt 0.522303 0.759109
vt 0.585495 0.901030
vt 0.586575 0.898792
vt 0.582185 0.902080
vt 0.579473 0.903007
vt 0.584264 0.891884
vt 0.249384 0.925829
vt 0.578132 0.893399
vt 0.574346 0.899931
vt 0.582969 0.904673
vt 0.580657 0.905067
vt 0.248388 0.922186
vt 0.583391 0.906519
vt 0.587874 0.907261
vt 0.583754 0.909047
vt 0.580203 0.909928
vt 0.576419 0.908056
vt 0.577665 0.910174
vt 0.241512 0.922393
vt 0.242811 0.920539
vt 0.240101 0.920501
vt 0.241159 0.918820
vt 0.387350 0.939722
vt 0.389600 0.938498
vt 0.389892 0.930835
vt 0.389892 0.927223
vt 0.574353 0.908858
vt 0.576566 0.911923
vt 0.387111 0.923490
vt 0.389639 0.924863
vt 0.572818 0.909500
vt 0.573724 0.911549
vt 0.238112 0.937619
vt 0.237208 0.929946
vt 0.238391 0.926947
vt 0.236206 0.935804
vt 0.235795 0.929897
vt 0.519977 0.760629
vt 0.527577 0.771002
vt 0.529711 0.775151
vt 0.535784 0.769615
vt 0.532622 0.776285
vt 0.066850 0.924175
vt 0.069936 0.925395
vt 0.067549 0.926012
vt 0.069765 0.929417
vt 0.537683 0.768300
vt 0.065556 0.921858
vt 0.064168 0.923178
vt 0.066824 0.919816
vt 0.237790 0.923774
vt 0.286153 0.988335
vt 0.287764 0.986235
vt 0.287764 0.989636
vt 0.237512 0.921242
vt 0.384817 0.940135
vt 0.381999 0.939881
vt 0.382984 0.929618
vt 0.082685 0.934057
vt 0.085464 0.932755
vt 0.084259 0.935241
vt 0.080964 0.936131
vt 0.234810 0.924570
vt 0.235512 0.922235
vt 0.379348 0.929279
vt 0.377713 0.939201
vt 0.375064 0.937000
vt 0.376229 0.935836
vt 0.079203 0.934350
vt 0.233275 0.927171
vt 0.524632 0.777283
vt 0.521864 0.775323
vt 0.373970 0.929264
vt 0.376303 0.925893
vt 0.377613 0.927016
vt 0.076167 0.934153
vt 0.077768 0.936404
vt 0.530713 0.777946
vt 0.528637 0.777337
vt 0.373638 0.931361
vt 0.082885 0.922949
vt 0.084241 0.925475
vt 0.081653 0.926000
vt 0.080283 0.921916
vt 0.373988 0.927023
vt 0.569426 0.902902
vt 0.079328 0.919043
vt 0.077110 0.923385
vt 0.078143 0.926865
vt 0.084975 0.929069
vt 0.082435 0.929614
vt 0.084817 0.931376
vt 0.082755 0.932003
vt 0.536128 0.980100
vt 0.534423 0.980327
vt 0.534154 0.978047
vt 0.536128 0.976716
vt 0.080541 0.932349
vt 0.581543 0.892311
vt 0.568526 0.897477
vt 0.539096 0.764514
vt 0.235074 0.938513
vn -0.9248 -0.2335 0.3003
vn -0.9213 -0.3850 0.0544
vn -0.8601 -0.4637 0.2125
vn -0.7861 -0.4825 -0.3864
vn -0.8404 -0.5095 -0.1846
vn -0.9322 -0.2582 -0.2537
vn -0.4494 -0.1511 0.8805
vn -0.6602 -0.2010 0.7237
vn -0.3355 -0.7742 0.5368
vn -0.1812 0.0848 0.9798
vn -0.3486 0.1562 0.9242
vn -0.4293 -0.7970 0.4248
vn -0.5188 -0.7893 0.3284
vn -0.6443 0.0328 0.7641
vn -0.6086 0.2331 0.7584
vn -0.7196 0.3705 0.5873
vn -0.8333 0.4840 0.2672
vn -0.8767 0.2195 0.4280
vn -0.4832 0.8323 0.2718
vn -0.6605 0.6641 0.3503
vn -0.3408 0.7648 0.5467
vn -0.4650 0.8831 0.0619
vn -0.1540 0.8874 0.4345
vn -0.5616 0.8080 -0.1780
vn -0.3369 0.8751 -0.3474
vn -0.5597 -0.2789 -0.7804
vn -0.7740 -0.0819 -0.6278
vn -0.5442 -0.0569 -0.8370
vn -0.1941 -0.7462 0.6368
vn 0.0014 -0.6945 0.7195
vn -0.4640 -0.3665 -0.8065
vn -0.4136 -0.8240 -0.3873
vn 0.6279 0.3358 0.7022
vn 0.4021 0.1969 0.8942
vn 0.7155 0.2107 0.6661
vn 0.7952 0.2679 0.5440
vn 0.8741 0.2535 0.4144
vn 0.8556 0.3467 0.3844
vn 0.8911 0.4113 0.1918
vn 0.8167 0.3678 0.4447
vn 0.7764 0.5908 0.2194
vn 0.9470 0.3140 -0.0685
vn 0.8283 0.5424 -0.1405
vn 0.7694 0.6371 0.0462
vn 0.7201 0.6022 -0.3448
vn 0.7947 -0.4354 -0.4230
vn 0.8418 0.5233 -0.1321
vn 0.9051 -0.4143 0.0957
vn -0.0902 0.9855 -0.1439
vn 0.0694 0.8683 -0.4912
vn 0.1392 0.8474 0.5125
vn 0.3824 0.6551 0.6517
vn 0.2932 0.8840 0.3640
vn 0.3075 0.8786 -0.3654
vn 0.3283 0.6747 -0.6610
vn 0.4929 0.5031 0.7099
vn 0.6975 0.5161 0.4972
vn 0.5032 0.8473 0.1699
vn 0.6392 0.6928 0.3339
vn 0.8018 0.5954 -0.0523
vn 0.8207 0.5412 0.1830
vn 0.7644 0.5614 -0.3170
vn 0.7997 0.3925 -0.4544
vn 0.6125 0.6731 -0.4144
vn 0.7134 0.2681 -0.6474
vn 0.4809 0.2871 -0.8284
vn 0.6157 0.4348 -0.6572
vn 0.4936 0.0873 -0.8653
vn 0.4786 0.1681 -0.8618
vn 0.2947 -0.0076 -0.9555
vn 0.2400 -0.4508 -0.8597
vn 0.1294 0.2337 -0.9637
vn 0.4381 0.5131 -0.7381
vn 0.3050 0.3906 -0.8686
vn -0.4822 -0.8486 -0.2174
vn -0.0486 -0.5660 -0.8229
vn -0.2467 -0.6459 -0.7225
vn -0.2898 -0.7825 -0.5510
vn -0.1873 -0.0808 -0.9790
vn 0.6164 -0.5844 0.5278
vn 0.8462 -0.4200 0.3279
vn 0.4430 -0.6409 0.6269
vn -0.9757 0.0023 0.2192
vn -0.8752 -0.1207 0.4685
vn -0.9984 0.0073 0.0566
vn -0.9525 -0.0503 -0.3005
vn -0.5089 -0.8542 -0.1067
vn -0.7641 -0.3633 -0.5331
vn -0.9635 0.2615 0.0575
vn -0.9438 0.2533 -0.2124
vn -0.8658 0.4991 0.0360
vn -0.7216 0.6905 0.0503
vn -0.7526 0.6285 -0.1965
vn -0.8227 0.2766 -0.4967
vn -0.7174 0.5538 -0.4228
vn -0.3097 0.3881 0.8680
vn -0.5255 0.5543 0.6454
vn -0.1605 0.6464 0.7459
vn -0.6989 0.2683 -0.6630
vn -0.4952 0.6898 -0.5282
vn -0.5254 0.2497 -0.8134
vn -0.4150 0.5540 -0.7217
vn 0.1818 -0.6917 0.6989
vn 0.1813 0.0880 0.9795
vn 0.1366 0.3079 0.9416
vn 0.4343 0.0531 0.8992
vn 0.9467 0.2658 0.1822
vn 0.9453 0.3159 -0.0819
vn 0.8174 0.4182 -0.3962
vn 0.6766 0.5457 -0.4944
vn 0.6288 0.3000 -0.7174
vn 0.5982 0.5516 -0.5813
vn 0.4653 -0.4065 -0.7863
vn 0.1430 0.3947 0.9076
vn 0.1332 0.6633 0.7364
vn -0.0774 0.9953 0.0588
vn -0.1013 0.7689 -0.6313
vn 0.1783 0.9837 0.0234
vn 0.5963 0.6738 0.4365
vn 0.5008 0.8373 -0.2195
vn 0.5376 0.5790 -0.6130
vn -0.2070 -0.0049 -0.9783
vn -0.2995 -0.2444 -0.9222
vn 0.0523 -0.1144 -0.9921
vn 0.1366 0.0405 -0.9898
vn -0.1382 0.2522 -0.9578
vn -0.0920 0.5929 -0.8000
vn 0.1783 0.5752 -0.7983
vn -0.5299 -0.8439 0.0842
usemtl bake.002
s 1
f 3/1/1 2/2/2 10/3/3
f 13/4/4 11/5/5 6/6/6
f 6/6/6 11/5/5 2/2/2
f 17/7/7 8/8/8 127/9/9
f 17/7/7 16/10/10 18/11/11
f 128/12/12 8/8/8 121/13/13
f 9/14/14 24/15/15 25/16/16
f 27/17/17 21/18/18 25/19/16
f 38/20/19 26/21/20 36/22/21
f 39/23/22 38/20/19 37/24/23
f 40/25/24 39/23/22 41/26/25
f 20/27/26 15/28/27 44/29/28
f 126/30/29 47/31/30 16/10/10
f 126/30/29 16/10/10 17/7/7
f 49/32/31 19/33/32 20/27/26
f 55/34/33 53/35/34 54/36/35
f 56/37/36 55/34/33 54/36/35
f 56/37/36 54/36/35 61/38/37
f 62/39/38 56/37/36 61/38/37
f 63/40/39 61/38/37 60/41/40
f 63/40/39 60/41/40 73/42/41
f 65/43/42 63/40/39 76/44/43
f 76/44/43 75/45/44 77/46/45
f 125/47/46 79/48/47 74/49/48
f 41/26/25 84/50/49 86/51/50
f 82/52/51 88/53/52 89/54/53
f 86/51/50 91/55/54 93/56/55
f 86/51/50 84/50/49 91/55/54
f 87/57/56 55/34/33 94/58/57
f 97/59/58 89/54/53 96/60/59
f 98/61/60 97/62/58 96/63/59
f 94/58/57 62/39/38 104/64/61
f 105/65/62 99/66/63 100/67/64
f 72/68/65 59/69/66 102/70/67
f 112/71/68 58/72/69 111/73/70
f 118/74/71 57/75/72 70/76/73
f 59/69/66 92/77/74 102/70/67
f 19/33/32 12/78/75 13/4/4
f 118/74/71 119/79/76 57/75/72
f 123/80/77 116/81/78 108/82/79
f 60/41/40 124/83/80 117/84/81
f 54/36/35 129/85/82 124/83/80
f 4/86/83 3/1/1 1/87/84
f 5/88/85 7/89/86 6/6/6 2/2/2
f 121/90/13 1/87/84 3/1/1 10/3/3
f 1/91/84 121/13/13 8/8/8
f 1/91/84 8/8/8 9/14/14
f 11/5/5 13/4/4 12/78/75 122/92/87
f 2/2/2 11/5/5 10/3/3
f 7/89/86 15/28/27 14/93/88 6/6/6
f 14/93/88 13/4/4 6/6/6
f 8/8/8 17/7/7 18/11/11 9/14/14
f 21/18/18 22/94/89 5/88/85 4/86/83
f 128/12/12 127/9/9 8/8/8
f 14/93/88 19/33/32 13/4/4
f 20/27/26 19/33/32 14/93/88
f 15/28/27 20/27/26 14/93/88
f 4/86/83 1/87/84 21/18/18
f 5/88/85 22/94/89 23/95/90 7/89/86
f 9/14/14 25/16/16 21/96/18 1/91/84
f 27/17/17 28/97/91 22/94/89 21/18/18
f 27/17/17 25/19/16 26/98/20
f 26/98/20 29/99/92 28/97/91 27/17/17
f 28/97/91 29/99/92 30/100/93 23/95/90
f 23/95/90 22/94/89 28/97/91
f 7/89/86 23/95/90 31/101/94 15/28/27
f 23/95/90 30/100/93 32/102/95 31/101/94
f 18/11/11 33/103/96 24/15/15 9/14/14
f 24/15/15 33/103/96 35/104/97 25/16/16
f 34/105/98 36/106/21 35/104/97 33/103/96
f 35/107/97 36/22/21 26/21/20 25/108/16
f 26/21/20 38/20/19 39/23/22 29/109/92
f 38/20/19 36/22/21 37/24/23
f 39/23/22 40/25/24 30/110/93 29/109/92
f 42/111/99 31/101/94 32/102/95 43/112/100
f 31/101/94 42/111/99 15/28/27
f 40/25/24 43/113/100 32/114/95 30/110/93
f 42/111/99 45/115/101 44/29/28 15/28/27
f 41/26/25 43/113/100 40/25/24
f 42/111/99 43/112/100 46/116/102 45/115/101
f 47/31/30 50/117/103 51/118/104 16/10/10
f 126/30/29 17/7/7 127/9/9
f 48/119/105 18/11/11 16/10/10
f 50/117/103 52/120/106 53/121/34 51/118/104
f 51/118/104 53/121/34 48/119/105 16/10/10
f 129/85/82 54/36/35 53/35/34 52/122/106
f 61/38/37 63/40/39 64/123/107 62/39/38
f 60/41/40 54/36/35 124/83/80
f 60/41/40 61/38/37 54/36/35
f 64/123/107 63/40/39 65/43/42 66/124/108
f 65/43/42 68/125/109 99/126/63 66/124/108
f 67/127/110 70/76/73 71/128/111 68/129/109
f 57/75/72 58/72/69 71/128/111 70/76/73
f 99/130/63 68/129/109 71/128/111 72/68/65
f 71/128/111 58/72/69 59/69/66 72/68/65
f 63/40/39 73/42/41 75/45/44 76/44/43
f 117/84/81 73/42/41 60/41/40
f 67/131/110 68/125/109 76/44/43 77/46/45
f 78/132/112 77/133/45 125/47/46 69/134/113
f 76/44/43 68/125/109 65/43/42
f 67/127/110 77/133/45 78/132/112 70/76/73
f 18/11/11 48/119/105 80/135/114 33/103/96
f 79/136/47 77/137/45 75/138/44
f 80/135/114 81/139/115 34/105/98 33/103/96
f 34/140/98 81/141/115 82/52/51 36/22/21
f 83/142/116 84/50/49 41/26/25 39/23/22
f 37/24/23 36/22/21 82/52/51
f 83/142/116 39/23/22 37/24/23
f 85/143/117 43/144/100 41/145/25 86/146/50
f 53/121/34 87/147/56 80/135/114 48/119/105
f 80/135/114 87/147/56 88/148/52 81/139/115
f 89/54/53 90/149/118 83/142/116 37/24/23
f 82/52/51 81/141/115 88/53/52
f 89/54/53 37/24/23 82/52/51
f 83/142/116 90/149/118 91/55/54 84/50/49
f 87/150/56 94/151/57 95/152/119 88/53/52
f 3/1/1 4/86/83 5/88/85 2/2/2
f 86/146/50 93/153/55 85/143/117
f 55/154/33 87/147/56 53/121/34
f 56/37/36 94/58/57 55/34/33
f 95/152/119 96/60/59 89/54/53 88/53/52
f 94/58/57 96/155/59 95/156/119
f 98/157/60 100/158/64 101/159/120 97/59/58
f 90/149/118 89/54/53 97/59/58
f 90/149/118 97/59/58 101/159/120 91/55/54
f 101/159/120 100/158/64 91/55/54
f 99/66/63 102/70/67 103/160/121 100/67/64
f 92/77/74 93/153/55 103/160/121 102/70/67
f 91/161/54 100/67/64 103/160/121 93/153/55
f 66/124/108 99/126/63 105/162/62 98/163/60
f 62/39/38 94/58/57 56/37/36
f 64/123/107 104/64/61 62/39/38
f 104/64/61 96/155/59 94/58/57
f 66/124/108 104/64/61 64/123/107
f 66/124/108 98/163/60 104/64/61
f 98/157/60 96/60/59 104/164/61
f 20/165/26 44/166/28 107/167/122 106/168/123
f 105/169/62 100/158/64 98/157/60
f 72/68/65 102/70/67 99/66/63
f 20/27/26 106/170/123 49/32/31
f 116/81/78 49/171/31 106/168/123 108/82/79
f 109/172/124 106/168/123 107/167/122 110/173/125
f 109/172/124 108/82/79 106/168/123
f 108/82/79 109/172/124 111/73/70 57/75/72
f 111/73/70 58/72/69 57/75/72
f 109/172/124 110/173/125 112/71/68 111/73/70
f 112/71/68 59/69/66 58/72/69
f 44/166/28 45/174/101 113/175/126 107/167/122
f 118/74/71 70/76/73 69/134/113
f 113/175/126 45/174/101 46/176/102 114/177/127
f 85/178/117 114/179/127 46/180/102 43/181/100
f 110/173/125 107/167/122 113/175/126 92/77/74
f 113/175/126 114/177/127 115/182/128 92/77/74
f 115/182/128 93/153/55 92/77/74
f 85/143/117 93/153/55 115/182/128 114/177/127
f 110/173/125 92/77/74 59/69/66 112/71/68
f 74/49/48 75/45/44 73/42/41 117/84/81
f 122/92/87 120/183/129 10/3/3 11/5/5
f 79/48/47 75/45/44 74/49/48
f 49/32/31 116/184/78 19/33/32
f 10/3/3 120/183/129 121/90/13
f 123/80/77 108/82/79 57/75/72 119/79/76
f 125/185/46 77/46/45 79/48/47
f 69/134/113 70/76/73 78/132/112
f 52/120/106 50/117/103 129/186/82
f 124/83/80 129/85/82 50/117/103 47/31/30 126/30/29 127/9/9 128/12/12 121/13/13 120/183/129 122/92/87 12/78/75 19/33/32 116/184/78 123/80/77 119/79/76 118/74/71 69/134/113 125/47/46 74/49/48 117/84/81
